<?xml version="1.0" encoding="utf-8"?>
<!-- Generator: Adobe Illustrator 23.0.2, SVG Export Plug-In . SVG Version: 6.00 Build 0)  -->
<svg version="1.1" id="Layer_1" xmlns="http://www.w3.org/2000/svg" xmlns:xlink="http://www.w3.org/1999/xlink" x="0px" y="0px"
	 viewBox="0 0 233 75" style="enable-background:new 0 0 233 75;" xml:space="preserve">
<style type="text/css">
	.st0{fill:none;stroke:#F3F3F3;stroke-width:0.5;stroke-miterlimit:10;}
</style>
<g>
	<path class="st0" d="M23.6,5.6c3.3,0,6.9-0.4,9.2-0.4c2,0,3.2,1,3.2,3.2c0,4.8-14.1,5.9-14.5,14.5c0,2.7,0.4,6.1,0.4,8.8
		c-0.3,10.6-6.5,13.9-6.5,22.4c0,6.2,4.7,9.6,11.9,9.6c6.5,0,8.7-4.6,8.7-9.6c0-5.2-4.7-14.8-4.7-20.7C31.3,25.5,36,21,44.2,21
		c6.9,0,9.6,4.3,9.6,9.8c0,5.1-1.9,7.5-3.7,7.5c-2.6,0-3.2-2.6-8.2-2.6c-2.8,0-4.5,1.3-4.5,3.8c0,8.1,19.3,13.2,19.3,25.8
		c0,2.8-0.8,4.6-3.5,4.6c-2.9,0-13.9-1.5-23.9-1.5c-7.4,0-18.6,1.1-23.6,1.1c-1.9,0-3.3-0.9-3.3-3.1c0-4.2,8.6-11.1,8.6-22.2
		c0-9.8-7.5-18.3-7.4-30.9c0.1-4.9,3.6-8,8.6-8C15.4,5.2,19.5,5.6,23.6,5.6z"/>
	<path class="st0" d="M88.4,5.8c3.7,0,6.9-0.9,9.1-0.9c7.8,0,16.7,10.4,16.7,25.1c0,7.9-6.6,14.4-6.6,22.4c0,4,0.6,5.2,0.6,8.6
		c0,6.6-5.1,8.5-21.3,8.5c-12.8,0-19.1-1.7-19.1-8.4c0-1.4,0.2-5.1,0.2-7.3c0-4.7-4.9-12.5-4.9-23.7c0-15.9,8.8-25.2,16.9-25.2
		C82.2,4.9,86.3,5.8,88.4,5.8z M68.3,26.2c0,6.4,5.8,12.8,8.3,19.2c4,10,8.2,12,15.4,12c7.9,0,11.3-5.3,11.3-11
		C103.4,37.5,94,16,78,16C71.8,16,68.3,19.9,68.3,26.2z"/>
	<path class="st0" d="M168.4,11.8c2.1,0,2.7,1.2,2.7,3.2c0,4.9-4.5,12.6-8.5,12.6c-7.3,0-8.1-18.6-20.1-18.6c-3.4,0-6.2,2.1-6.2,6.4
		c0,13.9,34.2,13.6,34.2,35.3c0,10.6-7.2,18.9-23.5,18.9c-20.6,0-25.7-8.3-25.7-15.5c0-5.9,4.2-10.7,10.2-10.7
		c2.4,0,3.1,1.2,3.5,3.4c1,6.2,5.3,11.5,18.2,11.5c8.1,0,12.3-2,12.3-6.9c0-5-4.1-7.1-14.9-9.2c-17-3.1-28.6-7-28.6-20.1
		c0-10.7,8.6-17.5,21.8-17.5C157.1,4.6,162.1,11.8,168.4,11.8z"/>
	<path class="st0" d="M198.4,51.2c0,7.9,1.9,13.8,7.4,13.8c6.2,0,7.3-4.6,8.8-22.3c0.3-3.4,1.8-4.6,3-4.6c2.6,0,2.8,2.4,6.6,6.7
		c3.5,3.9,5.1,5.8,5.1,8.5c0,11.4-12.6,16.7-24.7,16.7c-15.7,0-24.3-4.6-24.3-16.6c0-14.7,19.2-26.3,19.2-35.8
		c0-2.5-1.3-3.8-3.8-3.8c-7,0-10.1,11-14.7,11c-1.9,0-2.9-0.9-2.9-2.7c0-1,0.4-4.2,0.4-6.3c0-2.4-0.6-5.5-0.6-7c0-2,0.4-3.5,3.5-3.5
		c5.3,0,13.2,0.7,23.1,0.7c8.3,0,20.8-0.7,22.6-0.7c2.4,0,3.5,1.2,3.5,3.8c0,6.4-5.5,16.6-9.5,16.6c-4.5,0-6-8.9-11.5-8.9
		C203.4,16.8,198.4,32.2,198.4,51.2z"/>
</g>
</svg>
